<?xml version="1.0" encoding="UTF-8"?>
<svg xmlns="http://www.w3.org/2000/svg" viewBox="0 0 2098.99 1932.96" style="shape-rendering:geometricPrecision">
 <path fill="#8B6DB0" d="M554.17 966.48c0,-504.11 -220.89,-841.7 -554.17,-966.48l0 1932.95c333.29,-124.78 554.17,-462.37 554.17,-966.48z"/>
 <path fill="#8B6DB0" d="M856.1 265.77c-52.32,49.52 -78.48,114.45 -78.48,194.8 0,78.48 26.16,143.88 78.48,196.2 52.32,52.32 116.78,78.48 193.4,78.48 76.61,0 141.07,-26.16 193.39,-78.48 52.32,-52.32 78.48,-117.72 78.48,-196.2 0,-80.35 -26.16,-145.28 -78.48,-194.8 -52.32,-49.52 -116.78,-74.27 -193.39,-74.27 -76.61,0 -141.08,24.76 -193.4,74.27z"/>
 <path fill="#8B6DB0" d="M1049.5 1197.72c-76.61,0 -141.08,24.76 -193.4,74.28 -52.32,49.52 -78.48,114.45 -78.48,194.8 0,78.48 26.16,143.88 78.48,196.2 52.32,52.32 116.78,78.48 193.4,78.48 76.61,0 141.07,-26.16 193.39,-78.48 52.32,-52.32 78.48,-117.72 78.48,-196.2 0,-80.35 -26.16,-145.28 -78.48,-194.8 -52.32,-49.52 -116.78,-74.28 -193.39,-74.28z"/>
 <path fill="#8B6DB0" d="M1544.82 966.48c0,503.44 220.3,840.8 554.17,965.98l0 -1931.96c-333.87,125.18 -554.17,462.54 -554.17,965.98z"/>
</svg>