<?xml version="1.0" encoding="UTF-8"?>
<svg xmlns="http://www.w3.org/2000/svg" viewBox="0 0 2098.99 1932.96" style="shape-rendering:geometricPrecision">
 <path fill="#8B6DB0" d="M856.1 265.77c-52.32,49.52 -78.48,114.45 -78.48,194.8 0,78.48 26.16,143.88 78.48,196.2 52.32,52.32 116.78,78.48 193.4,78.48 76.61,0 141.07,-26.16 193.39,-78.48 52.32,-52.32 78.48,-117.72 78.48,-196.2 0,-80.35 -26.16,-145.28 -78.48,-194.8 -52.32,-49.52 -116.78,-74.27 -193.39,-74.27 -76.61,0 -141.08,24.76 -193.4,74.27z"/>
 <path fill="#8B6DB0" d="M1049.5 1197.72c-76.61,0 -141.08,24.76 -193.4,74.28 -52.32,49.52 -78.48,114.45 -78.48,194.8 0,78.48 26.16,143.88 78.48,196.2 52.32,52.32 116.78,78.48 193.4,78.48 76.61,0 141.07,-26.16 193.39,-78.48 52.32,-52.32 78.48,-117.72 78.48,-196.2 0,-80.35 -26.16,-145.28 -78.48,-194.8 -52.32,-49.52 -116.78,-74.28 -193.39,-74.28z"/>
 <path fill="#8B6DB0" d="M1544.82 966.48c0,427.06 158.52,734.61 410.42,894.51 93.97,59.64 143.75,14.34 143.75,-95.19l0 -1599.13c0,-110.19 -49.89,-154.28 -143.75,-94.7 -251.89,159.9 -410.42,467.45 -410.42,894.51z"/>
 <path fill="#8B6DB0" d="M554.17 966.48c0,427.06 -158.52,734.61 -410.42,894.51 -93.97,59.64 -143.75,14.34 -143.75,-95.19l0 -1599.13c0,-110.19 49.89,-154.28 143.75,-94.7 251.89,159.9 410.42,467.45 410.42,894.51z"/>
</svg>