<?xml version="1.0" encoding="UTF-8"?>
<svg xmlns="http://www.w3.org/2000/svg" viewBox="0 0 2731.33 2040.46" style="shape-rendering:geometricPrecision">
 <path fill="#8B6DB0" d="M870.34 1020.23c0,-647.46 -364.37,-1020.23 -863.27,-1020.23 -2.37,0 -4.71,0.07 -7.07,0.08l0 454.07c2.35,-0.06 4.7,-0.1 7.07,-0.1 176.58,0 305.51,154.16 305.51,566.17 0,412.02 -128.93,566.17 -305.51,566.17 -2.37,0 -4.72,-0.04 -7.07,-0.1l0 454.07c2.36,0.02 4.7,0.08 7.07,0.08 498.9,0 863.27,-372.78 863.27,-1020.23zm990.65 0c0,647.46 364.37,1020.23 866.08,1020.23 1.43,0 2.84,-0.05 4.26,-0.05l0 -454.07c-1.42,0.02 -2.83,0.06 -4.26,0.06 -179.38,0 -308.31,-154.16 -308.31,-566.17 0,-412.02 128.93,-566.17 308.31,-566.17 1.43,0 2.84,0.04 4.26,0.06l0 -454.07c-1.43,-0 -2.83,-0.05 -4.26,-0.05 -501.71,0 -866.08,372.78 -866.08,1020.23zm-495.32 231.24c-76.61,0 -141.08,24.76 -193.4,74.28 -52.32,49.52 -78.48,114.45 -78.48,194.8 0,78.48 26.16,143.88 78.48,196.2 52.32,52.32 116.78,78.48 193.4,78.48 76.61,0 141.07,-26.16 193.39,-78.48 52.32,-52.32 78.48,-117.72 78.48,-196.2 0,-80.35 -26.16,-145.28 -78.48,-194.8 -52.32,-49.52 -116.78,-74.28 -193.39,-74.28zm-193.4 -931.94c-52.32,49.52 -78.48,114.45 -78.48,194.8 0,78.48 26.16,143.88 78.48,196.2 52.32,52.32 116.78,78.48 193.4,78.48 76.61,0 141.07,-26.16 193.39,-78.48 52.32,-52.32 78.48,-117.72 78.48,-196.2 0,-80.35 -26.16,-145.28 -78.48,-194.8 -52.32,-49.52 -116.78,-74.27 -193.39,-74.27 -76.61,0 -141.08,24.76 -193.4,74.27z"/>
</svg>